<svg width="200" height="35" viewBox="0 0 200 35" fill="none" xmlns="http://www.w3.org/2000/svg">
<path d="M185.094 0.956924H199.541V5.89589C197.039 4.56617 190.097 5.00941 190.097 5.00941V14.3808C190.097 14.3808 197.346 14.9507 198.468 14.1275V18.9398C195.967 18.3066 190.199 18.4333 190.199 18.4333V29.6406C190.199 29.6406 198.009 30.0839 200 28.7542V33.7564H185.197C185.197 33.7564 185.554 29.7675 185.554 17.7367C185.554 5.70593 185.094 0.956924 185.094 0.956924ZM163.655 5.58456V0.962201H182.695V5.83758C182.695 5.83758 177.233 5.01442 175.702 4.95136C175.702 7.10425 175.702 31.4189 176.213 33.6353H170.342C171.057 30.5957 170.852 8.24401 170.852 5.01468C168.147 5.01468 163.655 5.58456 163.655 5.58456ZM128.943 0.956397H134.61C134.61 0.956397 134.354 3.61584 134.354 9.44128C134.354 15.2667 134.559 29.8303 134.559 29.8303C134.559 29.8303 140.429 30.2103 142.011 29.0072V33.6295H129.045C129.045 33.6295 129.403 31.0334 129.403 17.9898C129.403 4.94556 128.943 0.956397 128.943 0.956397ZM101.225 0.955077H107.146C107.146 0.955077 106.687 5.00228 106.687 14.1837C106.687 23.3651 105.921 27.9872 110.771 30.267C115.62 32.5465 119.296 29.3805 120.112 27.7975C120.929 26.2145 121.337 23.3651 121.337 15.3235C121.337 7.28181 120.929 1.6516 120.521 0.955077H124.911C124.911 0.955077 124.707 4.49572 124.707 15.3235C124.707 26.1512 124.758 27.9241 121.95 31.3434C119.142 34.7627 112.149 36.6623 106.432 33.0528C100.715 29.4436 101.481 23.4915 101.481 23.0482C101.481 22.605 102.246 3.67758 101.225 0.955077ZM96.6309 2.27952L96.1715 7.47177C96.1715 7.47177 93.9767 4.05248 90.8627 4.05248C87.7488 4.05248 86.4216 7.34512 86.9323 9.30805C87.4428 11.271 88.6679 12.3474 93.415 15.1335C98.1623 17.9198 99.3874 21.4655 99.0812 25.1381C98.7749 28.8106 96.8862 34.4461 91.3731 34.826C85.8601 35.2059 83.0015 33.3697 83.0015 33.3697L83.512 27.4809C83.512 27.4809 85.5028 30.7102 89.7396 30.9635C93.9765 31.2168 94.5891 28.1141 94.7422 26.911C94.8953 25.7079 95.4058 22.9852 90.4032 20.579C85.4007 18.1731 82.6442 16.0833 82.6442 11.018C82.6442 5.95235 85.1344 2.01648 88.5656 1.14002C91.5263 0.44324 93.3639 0.44324 96.6309 2.27952ZM56.0491 1.07644H59.8776C59.8776 1.07644 71.5671 18.1729 75.0895 22.352C75.0895 17.7929 74.9874 2.85468 74.6301 0.955077H78.7138C78.7138 0.955077 78.6117 6.07872 78.6117 16.2733C78.6117 26.4678 78.8648 33.7467 78.8648 33.7467H75.4957C75.4957 33.7467 64.9821 18.8058 60.0308 12.0305C60.0308 18.6158 60.0308 31.2165 60.3881 33.7491H55.9981C55.9981 33.7491 56.4575 28.6837 56.4575 17.2861C56.4573 5.88876 56.0491 1.07644 56.0491 1.07644ZM142.15 33.6702C142.15 33.6702 150.076 11.5973 152.731 0.959563H156.968C156.968 0.959563 163.032 21.1961 167.779 33.6702H161.858C161.858 33.6702 159.367 25.0845 158.601 22.4884H149.872C149.872 22.4884 146.976 31.9605 146.67 33.6702H142.15ZM157.121 19.4393L154.007 9.49801L150.893 19.5026L157.121 19.4393ZM22.8689 2.91272L22.5115 8.54794C22.5115 8.54794 20.2655 3.9889 14.1399 3.9889C8.01431 3.9889 5.56407 10.8908 5.56407 17.2228C5.56407 23.5548 8.16745 30.71 15.1608 30.71C20.6228 30.71 23.3793 25.4544 23.3793 25.4544L23.7877 30.8999C23.7877 30.8999 21.0312 34.5725 14.293 34.5725C7.55489 34.5725 0 29.7604 0 17.0964C0 4.4324 8.42268 0 13.7315 0C19.3466 0 22.8689 2.91272 22.8689 2.91272ZM24.4003 17.2864C24.5023 35.2693 38.6933 34.7627 38.6933 34.7627C38.6933 34.7627 52.7311 35.3323 52.8332 17.8563C52.8332 0 38.7443 0.06332 38.7443 0.06332C38.7443 0.06332 24.6044 -0.316601 24.4003 17.2864ZM38.7805 3.72533C39.0464 3.72533 47.3414 4.12108 47.3414 16.7851C47.3414 29.4491 41.2797 31.2959 38.8337 31.2959C36.3877 31.2959 30.06 28.4597 30.06 17.0489C30.06 5.63812 36.8131 3.72533 38.7805 3.72533Z" fill="white"/>
</svg>
