<svg width="31" height="32" viewBox="0 0 31 32" fill="none" xmlns="http://www.w3.org/2000/svg">
<rect width="31" height="32" rx="5" fill="#3417FF"/>
<g clip-path="url(#clip0_0_63)">
<path d="M25.625 18.4062H24.9375V8.78125H7.0625V18.4062H6.375C6.19266 18.4062 6.0178 18.4787 5.88886 18.6076C5.75993 18.7365 5.6875 18.9114 5.6875 19.0938C5.6875 19.2761 5.75993 19.451 5.88886 19.5799C6.0178 19.7088 6.19266 19.7812 6.375 19.7812H14.4531L9.98438 24.8344C9.8613 24.9711 9.79759 25.1512 9.80726 25.3349C9.81693 25.5186 9.89919 25.691 10.0359 25.8141C10.1727 25.9371 10.3527 26.0009 10.5365 25.9912C10.7202 25.9815 10.8925 25.8993 11.0156 25.7625L15.3125 20.9156V25.9688C15.3125 26.1511 15.3849 26.326 15.5139 26.4549C15.6428 26.5838 15.8177 26.6562 16 26.6562C16.1823 26.6562 16.3572 26.5838 16.4861 26.4549C16.6151 26.326 16.6875 26.1511 16.6875 25.9688V20.9156L20.9844 25.7281C21.1075 25.8649 21.2798 25.9471 21.4635 25.9568C21.6473 25.9665 21.8273 25.9028 21.9641 25.7797C22.1008 25.6566 22.1831 25.4842 22.1927 25.3005C22.2024 25.1168 22.1387 24.9368 22.0156 24.8L17.5469 19.7812H25.625C25.8073 19.7812 25.9822 19.7088 26.1111 19.5799C26.2401 19.451 26.3125 19.2761 26.3125 19.0938C26.3125 18.9114 26.2401 18.7365 26.1111 18.6076C25.9822 18.4787 25.8073 18.4062 25.625 18.4062Z" fill="white"/>
<path d="M7.0625 5.34375H24.9375V7.40625H7.0625V5.34375Z" fill="white"/>
</g>
<defs>
<clipPath id="clip0_0_63">
<rect width="22" height="22" fill="white" transform="translate(5 5)"/>
</clipPath>
</defs>
</svg>
