<svg width="25" height="25" viewBox="0 0 25 25" fill="none" xmlns="http://www.w3.org/2000/svg">
<g clip-path="url(#clip0_0_24)">
<path d="M12.5001 25C19.4036 25 25.0001 19.4036 25.0001 12.5C25.0001 5.59644 19.4036 0 12.5001 0C5.5965 0 6.10352e-05 5.59644 6.10352e-05 12.5C6.10352e-05 19.4036 5.5965 25 12.5001 25Z" fill="#CAC7C7"/>
<path d="M16.5644 3.83594H13.7954C12.1521 3.83594 10.3244 4.52707 10.3244 6.90903C10.3324 7.73899 10.3244 8.53386 10.3244 9.42842H8.42334V12.4535H10.3832V21.1622H13.9845V12.396H16.3615L16.5766 9.41994H13.9224C13.9224 9.41994 13.9284 8.09604 13.9224 7.71157C13.9224 6.77028 14.9019 6.82418 14.9608 6.82418C15.4269 6.82418 16.3331 6.82554 16.5658 6.82418V3.83594H16.5644Z" fill="white"/>
</g>
<defs>
<clipPath id="clip0_0_24">
<rect width="25" height="25" fill="white"/>
</clipPath>
</defs>
</svg>
