<svg width="200" height="35" viewBox="0 0 200 35" fill="none" xmlns="http://www.w3.org/2000/svg">
<path fill-rule="evenodd" clip-rule="evenodd" d="M0 7.0423V35H5.92262V33.0332H3.02927V9.16415H5.92262V7.0423H0ZM15.36 31.2568V10.997H8.95189V31.2568H15.36ZM21.768 10.997V19.0332H16.4862V22.431H21.768V31.2568H28.2538V10.997H21.768ZM31.6035 16.2135V25.4763C31.6035 29.4099 34.7007 31.4824 40.8661 31.6657V28.3948C39.0699 28.2679 38.1572 27.5206 38.1572 26.2236V16.0091C38.1572 14.7261 39.0699 14.0141 40.8661 13.859V10.5599C34.7007 10.6868 31.6035 12.5831 31.6035 16.2135ZM44.8177 16.0091V26.2165C44.8177 27.5418 43.905 28.2608 42.0312 28.3877V31.6586C48.3422 31.5529 51.5074 29.5368 51.5074 25.575V16.3192C51.5074 12.5055 48.3422 10.5599 42.0312 10.5388V13.8661C43.8953 13.9859 44.8177 14.7049 44.8177 16.0091ZM54.6434 16.2135V25.4763C54.6434 29.4099 57.7407 31.4824 63.906 31.6657V28.3948C62.1098 28.2679 61.1971 27.5206 61.1971 26.2236V16.0091C61.1971 14.7261 62.1098 14.0141 63.906 13.859V10.5599C57.7504 10.6868 54.6434 12.5831 54.6434 16.2135ZM67.8577 16.0091V26.2165C67.8577 27.5418 66.945 28.2608 65.0711 28.3877V31.6586C71.3821 31.5529 74.5473 29.5368 74.5473 25.575V16.3192C74.5473 12.5055 71.3821 10.5599 65.0711 10.5388V13.8661C66.945 13.9859 67.8577 14.7049 67.8577 16.0091ZM83.8584 10.997H77.8679V31.2568H83.8584V10.997ZM91.6064 29.9033V22.9174L84.6255 12.5831V19.6395L91.6064 29.9033ZM98.4417 10.997H92.3443V31.2568H98.4417V10.997ZM101.927 10.997V31.2568H108.471V10.997H101.927ZM111.86 16.0866V25.6808C111.86 27.7533 112.598 29.2407 114.044 30.1853C115.491 31.1299 117.812 31.5881 121.025 31.5881V28.3948C119.297 28.2679 118.423 27.57 118.423 26.3716V15.9104C118.423 14.7049 119.297 14.0141 121.025 13.859V10.5599C114.928 10.5599 111.86 12.3998 111.86 16.0866ZM122.045 10.5388V13.8379C124.055 13.8872 125.074 14.578 125.074 15.9104V17.9758H131.307V16.136C131.307 12.3998 128.21 10.5388 122.045 10.5388ZM122.045 28.3948V31.6093H122.326C124.443 31.6093 125.996 31.003 126.938 29.7976L128.346 31.2497H131.307V19.287H121.511V22.3323H123.589C124.579 22.3323 125.064 22.7694 125.064 23.6153V26.3787C125.074 27.6757 124.055 28.3666 122.045 28.3948ZM148.57 10.997H140.288L133.21 31.2568H139.55L144.483 15.3746L146.667 23.6153H142.968L142.055 27.0201H147.619L148.92 31.2638H155.648L148.57 10.997ZM163.542 10.997H157.551V31.2568H163.542V10.997ZM171.29 29.9033V22.9174L164.309 12.5831V19.6395L171.29 29.9033ZM178.135 10.997H172.037V31.2568H178.135V10.997ZM187.077 34.9859V7.09869H181.154V9.22054H184.077V33.0262H181.154V34.9859H187.077ZM190.349 8.85398L192.534 9.41793L193.874 5.55488L196.835 8.80463L198.631 7.73313L194.757 4.94864L200 4.69486L199.573 2.98187L194.573 4.10977L196.757 0.634441L194.534 0L193.407 3.8137L190.242 0.592145L188.475 1.74119L192.524 4.39879L187.281 4.65257L187.737 6.36556L192.776 5.20947L190.349 8.85398Z" fill="white"/>
</svg>
