<svg width="200" height="35" viewBox="0 0 200 35" fill="none" xmlns="http://www.w3.org/2000/svg">
<path fill-rule="evenodd" clip-rule="evenodd" d="M24.0749 0.00410364C21.8601 0.0416563 19.6311 0.33725 17.5121 0.824898C9.30573 3.01261 3.59881 7.7861 1.01705 13.5134C0.581159 14.5885 0.227574 15.6647 0.0377631 16.7751C0.0377631 16.8111 -0.098296 17.9044 0.146106 17.6093C0.390509 17.3497 0.498852 16.9672 0.634911 16.6716C1.88464 13.9818 3.40816 11.5339 5.74468 9.20827C11.3433 3.94821 20.3374 0.564175 29.8473 2.43913C31.6144 2.82002 33.19 3.37634 34.7656 4.03565C35.0637 4.1746 37.265 5.28562 36.7762 4.27867C36.3689 3.48148 35.3367 2.80285 34.4389 2.26478C31.417 0.594218 27.7669 -0.058663 24.0749 0.00410364ZM93.4843 5.26685C92.2077 5.26685 91.2301 5.54581 90.5498 6.11876C89.8426 6.67346 89.5176 7.50713 89.5176 8.60099V16.516C87.9411 15.4055 86.3118 14.6062 84.6547 14.0671C83.5141 13.7154 82.2935 13.4813 81.0382 13.3734C80.2103 13.3023 79.3758 13.2677 78.5405 13.2699C74.3831 13.2699 70.9858 14.206 68.4326 16.0799C65.8769 17.9548 64.6003 20.5594 64.6003 23.9091C64.6003 25.489 64.9278 26.9632 65.5519 28.3172C66.2053 29.6713 67.1552 30.851 68.4049 31.8579C69.6069 32.8314 71.1272 33.6254 72.8596 34.1846C74.5721 34.721 76.4189 35 78.4304 35C79.3283 35 80.1975 34.9464 81.0382 34.8428C81.5729 34.789 82.1001 34.7081 82.6147 34.6009C83.8873 34.3237 85.0875 33.9258 86.1749 33.4206C87.2902 32.8992 88.3762 32.2227 89.5176 31.4073V31.9266C89.5176 32.9174 89.8989 33.6637 90.6312 34.2012C91.3644 34.7216 92.3446 35 93.4843 35C94.5979 35 95.5764 34.7398 96.3104 34.2361C97.0445 33.7152 97.3964 32.9523 97.3964 31.9266V8.32203C97.3964 7.33332 97.0714 6.56939 96.3911 6.04848C95.6864 5.52811 94.7071 5.26685 93.4843 5.26685ZM196.032 5.26685C194.756 5.26685 193.777 5.54581 193.099 6.11876C192.418 6.67346 192.066 7.50713 192.066 8.60099V16.516C190.49 15.4055 188.859 14.6062 187.203 14.0671C186.17 13.7371 184.948 13.4957 183.588 13.3734C182.759 13.3022 181.924 13.2676 181.088 13.2699C176.932 13.2699 173.563 14.206 170.98 16.0799C168.427 17.9548 167.148 20.5594 167.148 23.9091C167.148 25.489 167.474 26.9632 168.126 28.3172C168.778 29.6713 169.702 30.851 170.952 31.8579C172.155 32.8318 173.676 33.6259 175.409 34.1846C177.12 34.721 178.97 35 180.98 35C181.902 35 182.773 34.9464 183.588 34.8428C184.132 34.7913 184.646 34.7049 185.163 34.6009C186.435 34.3238 187.635 33.9259 188.722 33.4206C189.838 32.8992 190.952 32.2227 192.065 31.4073V31.9266C192.065 32.9174 192.445 33.6637 193.179 34.2012C193.94 34.7216 194.891 35 196.032 35C197.202 35 198.151 34.7398 198.886 34.2361C199.62 33.7152 200 32.9523 200 31.9266V8.32203C200 7.33332 199.647 6.56939 198.969 6.04848C198.261 5.52811 197.311 5.26685 196.032 5.26685H196.032ZM21.9332 6.71262C20.7845 6.69343 19.6468 6.85929 18.6249 7.19491C15.2285 8.28769 13.8687 10.9432 15.6081 13.1127C17.3198 15.2827 21.4755 16.1512 24.8727 15.0407C28.2692 13.9469 29.6281 11.2914 27.8895 9.12297C27.3311 8.41455 26.4821 7.8162 25.4331 7.39172C24.3842 6.96724 23.1745 6.73254 21.9332 6.71262ZM116.608 13.1996C114.19 13.2173 111.989 13.4775 109.978 13.9624C107.912 14.4844 106.175 15.2312 104.762 16.1861C103.348 17.1571 102.261 18.3212 101.527 19.6742C100.793 21.0288 100.413 22.5041 100.413 24.0829C100.413 27.4503 101.935 30.0876 104.923 32.0484C107.749 33.9067 111.636 34.8777 116.608 34.9812C116.907 34.9995 117.179 35 117.478 35C119.842 35 121.907 34.8085 123.728 34.4099C125.548 34.0097 127.042 33.5247 128.237 32.9335C129.461 32.3273 130.33 31.7018 130.929 31.0591C131.527 30.4175 131.824 29.8451 131.824 29.3768C131.824 28.8387 131.554 28.4047 131.037 28.1085C130.496 27.8146 129.787 27.6574 128.944 27.6574C128.13 27.6574 127.533 27.7797 127.097 28.005C126.261 28.5133 125.41 29.011 124.544 29.498C123.859 29.8654 123.142 30.2072 122.396 30.5216C121.606 30.8338 120.82 31.0779 119.977 31.2163C119.162 31.3719 118.239 31.4416 117.233 31.4416C117.015 31.4416 116.798 31.4416 116.608 31.4239C115.36 31.3719 114.19 31.1466 113.131 30.7292C111.908 30.2614 110.901 29.5677 110.17 28.6649C109.408 27.7277 109.027 26.6515 109 25.4369H125.412C127.587 25.4369 129.298 25.2288 130.52 24.8468C131.717 24.4305 132.315 23.562 132.315 22.2256C132.315 20.7675 131.744 19.3448 130.575 17.9393C129.406 16.5498 127.641 15.4055 125.304 14.5188C122.966 13.6347 120.139 13.1996 116.881 13.1996H116.608ZM150.167 13.1996C147.748 13.2173 145.52 13.4775 143.537 13.9624C141.471 14.4844 139.733 15.2312 138.291 16.1861C136.905 17.1571 135.82 18.3212 135.087 19.6742C134.352 21.0288 133.972 22.5041 133.972 24.0829C133.972 27.4503 135.466 30.0876 138.455 32.0484C141.28 33.9067 145.194 34.8777 150.167 34.9812C150.44 34.9995 150.736 35 151.035 35C153.373 35 155.465 34.8085 157.285 34.4099C159.105 34.0097 160.6 33.5247 161.795 32.9335C162.993 32.3273 163.887 31.7018 164.486 31.0591C165.083 30.4175 165.383 29.8451 165.383 29.3768C165.383 28.8387 165.11 28.4047 164.567 28.1085C164.051 27.8146 163.346 27.6574 162.475 27.6574C161.686 27.6574 161.089 27.7797 160.654 28.005C159.594 28.63 158.754 29.1332 158.101 29.498C157.408 29.8656 156.681 30.2073 155.926 30.5216C155.168 30.8338 154.351 31.0779 153.537 31.2163C152.693 31.3719 151.798 31.4416 150.792 31.4416C150.574 31.4416 150.357 31.4416 150.167 31.4239C148.917 31.3719 147.747 31.1466 146.688 30.7292C145.438 30.2614 144.459 29.5677 143.699 28.6649C142.965 27.7277 142.584 26.6515 142.557 25.4369H158.941C161.143 25.4369 162.855 25.2288 164.051 24.8468C165.275 24.4305 165.87 23.562 165.87 22.2256C165.87 20.7675 165.275 19.3448 164.106 17.9393C162.937 16.5498 161.197 15.4055 158.833 14.5188C156.496 13.6347 153.699 13.1996 150.41 13.1996H150.167ZM36.043 13.2355C34.8202 13.2355 33.8677 13.4952 33.1891 13.9984C32.4828 14.4844 32.1292 15.2484 32.1292 16.2719V31.7361C32.1292 32.7769 32.5097 33.5934 33.2966 34.1492C34.0861 34.721 35.0629 35 36.2866 35C37.5363 35 38.5408 34.721 39.3303 34.1846C40.1181 33.6288 40.5262 32.8289 40.5262 31.7361V25.0544C40.5262 22.8496 40.716 21.3748 41.1234 20.576C41.6937 19.5701 42.6192 18.7896 43.8412 18.2166C45.0649 17.6608 46.423 17.3658 47.9179 17.3658C50.1982 17.3658 51.7477 17.8347 52.5095 18.7708C53.2696 19.7091 53.6517 21.0615 53.6517 22.8329V31.7361C53.6517 32.7769 54.0305 33.5934 54.8191 34.1492C55.6061 34.721 56.6123 35 57.862 35C59.084 35 60.0893 34.721 60.8503 34.1658C61.612 33.6288 62.0185 32.8118 62.0185 31.7361V21.7916C62.0185 20.612 61.9379 19.6388 61.7741 18.8926C61.6112 18.1286 61.2593 17.4184 60.6882 16.758C59.8189 15.6303 58.5415 14.7623 56.8021 14.1545C55.0627 13.5467 53.0806 13.2355 50.8785 13.2355C48.5957 13.2355 46.5851 13.5295 44.8188 14.103C43.0803 14.6926 41.4778 15.5954 39.9812 16.8443V16.1861C39.9812 15.5611 39.8191 15.023 39.4663 14.5713C39.1136 14.1207 38.6239 13.7902 38.0268 13.5644C37.4271 13.3385 36.7754 13.2355 36.043 13.2355ZM116.582 16.9318H116.608C118.78 16.9318 120.547 17.383 121.879 18.2858C123.239 19.1876 123.998 20.5594 124.215 22.3995H108.999C109.299 20.5948 110.114 19.223 111.445 18.3035C112.776 17.3835 114.488 16.9318 116.582 16.9318H116.582ZM150.139 16.9318H150.167C152.341 16.9318 154.104 17.383 155.436 18.2858C156.769 19.1876 157.556 20.5594 157.747 22.3995H142.558C142.829 20.5948 143.645 19.223 145.004 18.3035C146.336 17.3835 148.047 16.9318 150.139 16.9318ZM80.9324 17.244H81.0382C82.4786 17.244 83.8106 17.5219 85.0066 18.0605C86.2563 18.5981 87.2365 19.3792 87.9688 20.4033C88.6768 21.4274 89.0565 22.6596 89.0565 24.0834C89.0565 25.6102 88.6768 26.8768 87.9688 27.8832C87.2365 28.8902 86.2563 29.6359 85.0343 30.1214C83.8375 30.6074 82.4786 30.852 81.0382 30.852H81.013C79.5458 30.852 78.2129 30.5913 76.9901 30.0881C75.742 29.5677 74.7896 28.8038 74.0841 27.7974C73.3769 26.7733 73.0242 25.541 73.0242 24.0829C73.0242 22.7117 73.3517 21.4966 74.0035 20.4725C74.6821 19.4317 75.6059 18.6324 76.828 18.0771C78.0239 17.5037 79.4097 17.244 80.9324 17.244ZM183.506 17.244H183.588C185.028 17.244 186.36 17.5219 187.583 18.0605C188.805 18.5981 189.785 19.3792 190.517 20.4033C191.251 21.4274 191.605 22.6596 191.605 24.0834C191.605 25.6102 191.251 26.8768 190.517 27.8832C189.785 28.8902 188.804 29.6359 187.609 30.1214C186.405 30.6054 185.01 30.8589 183.588 30.852H183.562C182.096 30.852 180.762 30.5913 179.539 30.0881C178.318 29.5677 177.339 28.8038 176.633 27.7974C175.927 26.7733 175.573 25.541 175.573 24.0829C175.573 22.7117 175.897 21.4971 176.577 20.4725C177.229 19.4317 178.181 18.6324 179.377 18.0771C180.602 17.5037 181.958 17.244 183.506 17.244ZM26.5861 17.4184C24.4108 18.2499 21.8576 18.7193 19.1406 18.7193C18.5712 18.7193 18.0269 18.7027 17.4558 18.6673V31.4416C17.4558 32.6218 17.8909 33.507 18.7341 34.0977C19.6034 34.7049 20.6641 35 21.9953 35C23.3526 35 24.4688 34.7049 25.3086 34.1148C26.1527 33.5247 26.5861 32.6395 26.5861 31.4416V17.4189V17.4184Z" fill="white"/>
</svg>
