<svg width="25" height="25" viewBox="0 0 25 25" fill="none" xmlns="http://www.w3.org/2000/svg">
<g clip-path="url(#clip0_0_27)">
<path d="M8.33401 12.5C8.33401 14.8011 10.1989 16.667 12.5 16.667C14.8011 16.667 16.667 14.8011 16.667 12.5C16.667 10.1989 14.8011 8.333 12.5 8.333C10.1989 8.333 8.33401 10.1989 8.33401 12.5ZM6.08138 12.5C6.08138 8.95497 8.95497 6.08138 12.5 6.08138C16.045 6.08138 18.9186 8.95497 18.9186 12.5C18.9186 16.045 16.045 18.9186 12.5 18.9186C8.95497 18.9186 6.08138 16.045 6.08138 12.5ZM17.6727 19.1731C17.6727 18.3451 18.3441 17.6727 19.1731 17.6727C20.001 17.6727 20.6735 18.3451 20.6735 19.1731C20.6735 20.001 20.002 20.6725 19.1731 20.6725C18.3441 20.6725 17.6727 20.001 17.6727 19.1731ZM7.44952 2.32532C6.23082 2.38086 5.56846 2.5838 5.12823 2.75545C4.54463 2.98263 4.12863 3.25323 3.69043 3.69043C3.25323 4.12762 2.98162 4.54362 2.75545 5.12722C2.5838 5.56745 2.38086 6.2298 2.32532 7.44851C2.26474 8.76615 2.25263 9.16195 2.25263 12.5C2.25263 15.838 2.26575 16.2328 2.32532 17.5515C2.38086 18.7702 2.58481 19.4315 2.75545 19.8728C2.98263 20.4564 3.25323 20.8724 3.69043 21.3106C4.12763 21.7478 4.54362 22.0194 5.12823 22.2456C5.56846 22.4172 6.23082 22.6202 7.44952 22.6757C8.76717 22.7363 9.16296 22.7484 12.5 22.7484C15.838 22.7484 16.2328 22.7353 17.5515 22.6757C18.7702 22.6202 19.4315 22.4162 19.8728 22.2456C20.4564 22.0194 20.8724 21.7478 21.3106 21.3106C21.7478 20.8734 22.0184 20.4564 22.2456 19.8728C22.4172 19.4326 22.6202 18.7702 22.6757 17.5515C22.7363 16.2328 22.7484 15.838 22.7484 12.5C22.7484 9.16296 22.7363 8.76716 22.6757 7.44851C22.6202 6.2298 22.4162 5.56745 22.2456 5.12722C22.0184 4.54362 21.7478 4.12762 21.3106 3.69043C20.8734 3.25323 20.4564 2.98263 19.8728 2.75545C19.4326 2.5838 18.7702 2.38086 17.5515 2.32532C16.2338 2.26474 15.838 2.25262 12.5 2.25262C9.16296 2.25262 8.76717 2.26474 7.44952 2.32532ZM7.34653 24.9243C6.01575 24.8637 5.10703 24.6527 4.3124 24.3437C3.49051 24.0246 2.79382 23.5965 2.09814 22.9019C1.40347 22.2072 0.975364 21.5105 0.6563 20.6876C0.347334 19.893 0.136309 18.9842 0.075727 17.6535C0.0141357 16.3207 0 15.8946 0 12.5C0 9.10541 0.0141357 8.67932 0.075727 7.34653C0.136309 6.01575 0.347334 5.10703 0.6563 4.3124C0.975364 3.49051 1.40246 2.79281 2.09814 2.09814C2.79281 1.40347 3.4895 0.976372 4.3124 0.6563C5.10804 0.347334 6.01575 0.136307 7.34653 0.0757256C8.68033 0.0151443 9.10541 0 12.5 0C15.8956 0 16.3207 0.0141354 17.6535 0.0757256C18.9842 0.136307 19.893 0.347334 20.6876 0.6563C21.5095 0.976372 22.2062 1.40347 22.9019 2.09814C23.5965 2.79281 24.0236 3.49051 24.3437 4.3124C24.6527 5.10703 24.8647 6.01575 24.9243 7.34653C24.9849 8.68033 24.999 9.10541 24.999 12.5C24.999 15.8946 24.9849 16.3207 24.9243 17.6535C24.8637 18.9842 24.6527 19.893 24.3437 20.6876C24.0236 21.5095 23.5965 22.2062 22.9019 22.9019C22.2072 23.5965 21.5095 24.0246 20.6886 24.3437C19.893 24.6527 18.9842 24.8647 17.6545 24.9243C16.3217 24.9849 15.8956 25 12.501 25C9.10541 25 8.68033 24.9859 7.34653 24.9243Z" fill="#CAC7C7"/>
</g>
<defs>
<clipPath id="clip0_0_27">
<rect width="25" height="25" fill="white" transform="matrix(1 0 0 -1 0 25)"/>
</clipPath>
</defs>
</svg>
