<svg width="200" height="35" viewBox="0 0 200 35" fill="none" xmlns="http://www.w3.org/2000/svg">
<path d="M42.7198 0.000430837C37.7842 -0.0323949 33.1228 1.82147 33.1228 1.82147C33.1228 1.82147 28.4267 3.93545 26.7113 7.10302C26.6226 7.41068 17.319 20.8219 17.319 20.8219C5.52598 18.2873 -0.175589 23.4231 0.00411754 25.4053C2.85323 30.7176 16.7854 26.9386 18.1764 25.7087C18.9464 25.4017 19.4426 25.7693 19.4426 25.7693C19.4426 25.7693 22.8546 27.4577 23.2402 27.5906C23.6255 27.7235 25.5681 27.5299 25.5681 27.5299C27.0789 27.4446 29.7745 25.2441 30.101 25.2231C30.6048 25.2242 31.2124 27.6608 33.2864 27.6209C35.7749 27.9784 38.4726 25.8909 38.4726 25.8909C38.8277 25.5174 38.9627 25.7997 38.9627 25.7997C38.9054 28.0893 41.4073 27.6854 42.1477 27.6209C44.6064 26.8773 50.6284 22.4675 49.9479 23.7663C49.7113 24.1181 47.8652 26.6798 47.8652 26.6798C47.6583 27.3624 48.3144 27.3173 48.3144 27.3173L52.6429 27.287C53.3831 26.9581 57.1703 20.8964 56.7268 21.7327C58.0917 19.8967 61.1781 19.2438 61.1781 19.2438C61.4744 19.1781 61.3413 19.4865 61.3413 19.4865L56.2775 26.9531C56.1892 27.1507 56.6857 27.3477 56.6857 27.3477L61.0961 27.287C61.6889 27.2444 65.3841 21.6111 65.3841 21.6111C66.3898 20.1817 69.9581 19.3651 69.9581 19.3651C70.6093 19.2782 70.1622 19.7597 70.1622 19.7597L66.6911 25.1624C66.1635 27.6153 68.9365 27.759 70.1214 27.6513C71.3062 27.5218 73.233 27.0258 77.0227 24.9195C77.7933 24.4812 77.962 24.9222 77.962 25.0107C77.9946 28.0271 82.4541 27.6816 82.4541 27.6816C83.7873 27.9265 89.1989 27.8317 93.7251 21.1255C92.0702 25.6797 95.4441 26.9198 95.5629 27.0747C95.6817 27.2286 97.4955 27.6995 98.1763 27.5906C105.079 28.0454 107.977 20.0633 107.977 20.0633C109.531 19.1972 109.925 18.9486 110.55 18.6973C112.091 18.81 112.505 18.8424 113.245 18.9099C113.838 19.0654 113.301 19.4763 113.123 19.6078C106.076 23.6891 109.169 26.8363 109.407 26.7711C112.49 29.8818 118.892 24.4592 120.106 24.3732C121.651 28.9566 126.351 26.9612 126.558 26.9834C126.144 27.8853 124.939 30.1157 123.904 31.5666C121.743 33.8304 118.35 31.2936 118.35 31.2936L117.492 31.2632C117.078 31.6585 117.329 32.1131 117.329 32.1131C118.218 33.1719 119.357 34.637 122.883 34.9965C126.438 35.114 128.478 32.2041 128.478 32.2041C128.478 32.2041 133.461 25.3695 133.787 24.5552C135.296 23.5456 137.917 22.0876 139.871 21.0345C141.144 20.8391 136.684 26.2441 136.359 27.0138C136.271 27.4543 136.482 27.4692 136.482 27.4692C136.482 27.4692 139.873 27.5944 140.525 27.5299C141.176 27.4652 144.341 21.8766 145.466 20.8221C146.442 19.613 149.59 18.485 149.59 18.485C150.272 18.3763 150.04 18.9705 150.04 18.9705L145.874 25.2233C144.87 27.8407 147.698 27.8543 148.202 27.8335C149.564 27.7697 154.654 25.5873 154.654 25.5873C155.365 25.1923 155.349 25.8302 155.349 25.8302C155.29 26.6669 156.506 28.0377 157.513 27.8636C161.127 28.1131 166.594 23.6506 166.742 24.0696C166.772 24.1579 164.7 27.196 164.7 27.196C164.789 27.4382 165.149 27.5603 165.149 27.5603C165.149 27.5603 168.649 27.5888 169.478 27.5906C170.307 27.5924 174.08 20.8912 174.909 20.5183C176.597 19.223 178.444 19.1 178.503 19.1222C179.125 19.1019 174.982 24.0205 174.746 25.0105C173.831 27.8493 176.543 27.8029 176.543 27.8029C178.706 28.0499 184.008 25.2538 184.098 25.4961C184.719 25.0354 184.792 25.5873 184.792 25.5873V25.7997C185.15 28.0907 186.956 27.8333 186.956 27.8333C189.03 28.234 197.125 23.1894 197.125 23.1894L195.9 22.1879L190.836 24.9195C190.421 25.0732 190.182 24.7375 190.182 24.7375L195.859 16.603C196.125 16.4056 195.736 16.1781 195.736 16.1781H190.632C190.277 16.4633 190.06 16.6637 190.06 16.6637L185.446 23.3414L180.382 25.1927C179.849 25.3014 179.974 24.8894 179.974 24.8894C179.974 24.8894 184.192 18.7358 184.547 17.8778C184.784 17.4821 184.67 16.8459 184.67 16.8459C183.275 14.4426 177.64 17.5538 176.87 17.5744C176.84 17.5964 177.564 16.4817 177.564 16.4817C177.771 16.1516 177.36 16.1478 177.36 16.1478L172.623 16.1174C172.623 16.1174 172.637 15.8673 172.459 16.0871C172.282 16.3069 169.233 20.5489 169.233 20.5489L161.597 24.8285C160.945 24.9156 161.107 24.5858 161.107 24.5858L166.701 16.5423L166.742 16.2084L161.352 16.1174L156.9 22.4913C156.664 22.6891 152 24.6465 152 24.6465C151.289 24.7995 151.265 24.3429 151.265 24.3429L155.39 18.3939C156.324 16.0731 152.912 15.3907 151.224 15.8442C150.083 16.1498 149.019 16.421 149.019 16.421C149.019 16.421 148.682 16.4862 148.978 16.1781C149.481 15.6506 154.695 7.98298 154.695 7.98298C154.814 7.7627 154.532 7.61872 154.532 7.61872L149.795 7.58839C149.41 7.71924 149.346 7.9223 149.346 7.9223L142.607 17.4225L137.054 20.5186C136.698 20.694 136.686 20.397 136.686 20.397L139.463 16.4817V16.0869L134.481 16.0565L133.664 16.5421C133.1 15.6601 130.241 15.6705 130.152 15.6923C124.168 15.5474 120.8 21.8538 120.8 21.8538C117.47 23.9992 115.932 24.6668 114.838 24.7979C113.928 24.8359 113.654 24.2818 113.654 24.2818C112.386 21.3949 120.351 18.6667 120.351 18.6667C120.618 18.5569 121.765 15.9961 121.617 15.9959C121.469 15.9956 111.823 15.9875 111.734 15.9655C111.201 15.8104 108.625 17.6125 107.855 18.0295C105.599 13.1147 96.8574 16.8319 95.6446 19.031C95.1237 19.1342 94.8901 19.0622 94.6236 19.0613C94.7113 17.3883 94.4125 16.3452 92.9901 15.8136C92.2195 15.5039 89.07 15.8136 89.07 15.8136L94.4195 7.89174C94.6857 7.64996 94.1743 7.40615 94.1743 7.40615H89.3557C89.1483 7.49398 88.9065 7.7095 88.9065 7.7095C88.9065 7.7095 79.8014 20.8167 79.2687 21.5201C78.7363 22.2235 72.0814 24.8588 72.0814 24.8588C72.1399 24.3748 76.4263 18.8352 76.5737 17.7564C76.7483 14.9606 72.449 15.8442 72.449 15.8442C72.449 15.8442 70.0144 17.0454 67.7937 17.8778C67.3164 14.8159 63.7098 15.8745 63.7098 15.8745L59.6262 17.8475L60.3612 16.421L60.5247 15.8745L55.6239 15.7835C55.0619 16.0907 54.0723 17.7564 54.0723 17.7564L52.5205 19.8811L45.5375 23.7966C44.8564 24.0812 45.2107 23.402 45.2107 23.402C45.2107 23.402 49.9254 16.529 50.0292 16.4814C50.4142 16.306 50.1112 15.8747 50.1112 15.8747L45.3739 15.8442C45.3739 15.8442 44.5716 16.8572 44.3941 16.9673C42.1401 14.6061 34.7024 15.5644 30.7135 22.5522C30.2037 23.0192 29.8092 23.3461 29.5293 23.4324C24.8524 27.496 22.1784 23.4627 22.1784 23.4627L30.5503 11.5949C30.5503 11.5949 34.3591 5.26115 36.7575 3.46049C42.8276 0.412677 44.5573 3.27848 44.5573 3.27848C45.0818 4.18175 46.6812 7.4426 38.4318 9.01506C37.3496 9.09452 37.6965 9.4701 37.6965 9.4701C40.0976 10.9946 43.0463 10.8361 43.0463 10.8361C45.9499 11.2603 53.818 8.04229 50.9686 2.88389C48.7451 0.724182 45.681 0.0201263 42.7198 0.000430837ZM167.314 8.04387C162.989 8.1668 162.736 12.481 167.15 12.9304C171.446 13.0277 172.262 8.18672 167.314 8.04387ZM196.757 8.04387C192.077 8.0561 192.425 12.9652 196.839 12.9304C201.253 12.6757 200.876 8.1625 196.757 8.04387ZM42.2297 17.2403C43.614 17.2638 43.3719 18.4967 43.1282 18.7276C43.2765 19.1021 40.7186 22.309 40.7186 22.309C37.7589 25.0553 36.349 24.555 36.349 24.555C36.349 24.555 35.3347 24.4504 36.1041 22.9769C36.9326 21.9437 38.5414 19.2551 40.2285 17.6953C41.117 17.356 41.7679 17.2324 42.2297 17.2403ZM88.6613 17.5436C90.1133 17.679 89.3966 18.6667 89.3966 18.6667L85.3943 24.5247C84.1217 25.6894 82.9442 25.2835 82.9442 25.2835C82.2924 24.9294 83.3934 23.5838 83.3934 23.5838L87.1505 18.1205C87.8901 17.5493 88.6613 17.5436 88.6613 17.5436ZM130.315 17.5742C131.448 17.4248 131.908 18.1205 131.908 18.1205C131.908 18.1205 131.974 18.2323 131.826 18.849C131.501 19.7953 127.987 24.3123 127.987 24.3123C126.508 25.4103 125.211 25.1925 125.211 25.1925C124.47 25.0367 124.761 24.2213 124.761 24.2213C124.761 24.2213 127.607 19.8845 128.968 18.0598C129.501 17.7691 129.937 17.6238 130.315 17.5742ZM103.077 17.6045C103.703 17.526 104.297 17.7177 104.179 18.6971C103.44 19.8625 100.524 24.1439 99.9325 24.737C99.8144 25.2437 96.8364 26.0691 97.6046 24.2213C97.6046 24.2213 101.782 18.4148 101.811 18.1508C101.826 18.0186 102.451 17.6829 103.077 17.6045ZM9.02904 22.3702C11.4706 22.3267 13.6844 22.9162 13.6844 22.9162C13.6844 22.9162 13.1133 24.3311 7.72206 24.9802C5.17449 24.8654 3.84344 24.8737 3.84253 24.1912C5.08555 22.8164 7.12994 22.4039 9.02904 22.3702Z" fill="white"/>
</svg>
