<svg width="35" height="35" viewBox="0 0 35 35" fill="none" xmlns="http://www.w3.org/2000/svg">
<path d="M29.5312 11.7031L27.3984 9.73437L28 6.89062L25.2656 5.96094L24.6094 3.17188L21.7109 3.44531L20.0156 1.14844L17.5 2.57031L14.9844 1.14844L13.2891 3.44531L10.3906 3.17188L9.78906 6.01562L7.05469 6.94531L7.65625 9.78906L5.46875 11.7031L7.16406 14.0547L6.01562 16.6797L8.53125 18.1562V21.0547L11.4297 21.3828L12.5781 24.0078L15.3125 23.1328L17.5 25.0469L19.6875 23.1328L22.4219 24.0078L23.625 21.3828L26.5234 21.0547V18.1562L28.9844 16.6797L27.8359 14.0547L29.5312 11.7031ZM17.5 18.5391C16.4184 18.5391 15.3611 18.2183 14.4617 17.6174C13.5624 17.0165 12.8615 16.1624 12.4475 15.1631C12.0336 14.1638 11.9253 13.0642 12.1363 12.0034C12.3473 10.9426 12.8682 9.96814 13.633 9.20332C14.3978 8.4385 15.3723 7.91766 16.4331 7.70664C17.4939 7.49563 18.5935 7.60393 19.5928 8.01785C20.5921 8.43176 21.4462 9.13271 22.0471 10.032C22.648 10.9314 22.9688 11.9887 22.9688 13.0703C22.9688 14.5207 22.3926 15.9117 21.367 16.9373C20.3414 17.9629 18.9504 18.5391 17.5 18.5391Z" fill="#F170A0"/>
<path d="M16.0234 26.6875L14.7656 25.5938L13.1797 26.0859L12.5234 26.1953C12.1099 26.1932 11.7055 26.0739 11.3571 25.8512C11.0086 25.6286 10.7304 25.3118 10.5547 24.9375L10.0625 23.7891L8.75 33.8516L16.4062 30.9531V26.9609L16.0234 26.6875ZM24.3906 24.9375C24.2149 25.3118 23.9367 25.6286 23.5882 25.8512C23.2398 26.0739 22.8354 26.1932 22.4219 26.1953L21.7656 26.0859L20.1797 25.5938L18.9219 26.6875L18.5391 26.9609V31.0078L26.1953 33.9062L24.9922 23.6797L24.3906 24.9375Z" fill="#F170A0"/>
</svg>
