<svg width="35" height="25" viewBox="0 0 35 25" fill="none" xmlns="http://www.w3.org/2000/svg">
<path d="M13.3728 25C23.1681 25 28.5247 16.3917 28.5247 8.9269C28.5247 8.68243 28.5201 8.43908 28.5097 8.19673C29.552 7.3967 30.4515 6.40614 31.166 5.27148C30.2118 5.72148 29.185 6.02436 28.1079 6.16091C29.2074 5.46157 30.0514 4.35519 30.4497 3.03639C29.4043 3.69422 28.2607 4.15795 27.0681 4.40761C26.0963 3.30956 24.7128 2.6228 23.1809 2.6228C20.24 2.6228 17.8552 5.15265 17.8552 8.27108C17.8552 8.71443 17.902 9.14552 17.9934 9.55916C13.5674 9.32292 9.64276 7.07502 7.01617 3.65696C6.5431 4.51907 6.29427 5.49886 6.2951 6.49629C6.2951 8.45619 7.23522 10.1863 8.66492 11.1986C7.81923 11.1712 6.99211 10.9289 6.25311 10.492C6.25231 10.5157 6.25231 10.5388 6.25231 10.5642C6.25231 13.3 8.08792 15.5842 10.5246 16.1017C10.067 16.234 9.59474 16.3008 9.12042 16.3005C8.77787 16.3005 8.44403 16.2648 8.11957 16.1987C8.79755 18.4432 10.7635 20.0766 13.0943 20.1222C11.2716 21.6377 8.9756 22.5403 6.48017 22.5403C6.05566 22.5407 5.63151 22.5146 5.2099 22.4621C7.56674 24.0645 10.3653 24.9996 13.3731 24.9996" fill="#CAC7C7"/>
</svg>
