<svg width="35" height="35" viewBox="0 0 35 35" fill="none" xmlns="http://www.w3.org/2000/svg">
<g clip-path="url(#clip0_0_175)">
<path d="M22.5859 20.5078C24.1784 19.6139 25.5071 18.3161 26.4383 16.7451C27.3694 15.1741 27.87 13.3854 27.8898 11.5594C27.9095 9.73326 27.4476 7.93422 26.5506 6.34349C25.6536 4.75276 24.3532 3.42654 22.7804 2.49843C21.2077 1.57033 19.4181 1.07313 17.5919 1.05693C15.7658 1.04073 13.9677 1.5061 12.3787 2.40615C10.7897 3.30621 9.46594 4.60916 8.54087 6.18372C7.6158 7.75829 7.12205 9.54885 7.10938 11.375C8.72559 10.9406 10.4122 10.8331 12.0705 11.0588C13.7288 11.2845 15.3254 11.8388 16.7667 12.6893C18.208 13.5399 19.4652 14.6695 20.4644 16.012C21.4636 17.3546 22.1849 18.883 22.5859 20.5078Z" fill="#40A9A6"/>
<path d="M15.75 14.6016C14.1741 13.6468 12.3727 13.1282 10.5304 13.099C8.68803 13.0698 6.87107 13.531 5.26572 14.4353C3.66037 15.3397 2.32437 16.6547 1.39467 18.2455C0.464967 19.8363 -0.0249939 21.6457 -0.0249939 23.4883C-0.0249939 25.3308 0.464967 27.1403 1.39467 28.7311C2.32437 30.3219 3.66037 31.6369 5.26572 32.5412C6.87107 33.4456 8.68803 33.9068 10.5304 33.8776C12.3727 33.8484 14.1741 33.3298 15.75 32.375C13.3956 30.0167 12.0733 26.8206 12.0733 23.4883C12.0733 20.156 13.3956 16.9598 15.75 14.6016Z" fill="#40A9A6"/>
<path d="M29.6953 14.4922C29.2943 16.117 28.573 17.6454 27.5738 18.988C26.5745 20.3305 25.3174 21.4601 23.8761 22.3107C22.4348 23.1612 20.8382 23.7155 19.1799 23.9412C17.5216 24.1669 15.835 24.0594 14.2188 23.625C14.2314 25.4512 14.7252 27.2417 15.6502 28.8163C16.5753 30.3908 17.899 31.6938 19.488 32.5938C21.077 33.4939 22.8752 33.9593 24.7013 33.9431C26.5274 33.9269 28.317 33.4297 29.8898 32.5016C31.4626 31.5735 32.763 30.2472 33.66 28.6565C34.557 27.0658 35.0189 25.2667 34.9991 23.4406C34.9794 21.6146 34.4788 19.8259 33.5476 18.2549C32.6165 16.6839 31.2878 15.3861 29.6953 14.4922Z" fill="#40A9A6"/>
</g>
<defs>
<clipPath id="clip0_0_175">
<rect width="35" height="35" fill="white"/>
</clipPath>
</defs>
</svg>
